{
  "accessors": [
    {
      "bufferView": 2,
      "componentType": 5126,
      "count": 3539,
      "max": [
        1.8989481925964355,
        2.7521722316741943,
        2.3941121101379395
      ],
      "min": [
        -1.8870811462402344,
        -2.7846877574920654,
        -2.384185791015625e-07
      ],
      "type": "VEC3"
    },
    {
      "bufferView": 2,
      "byteOffset": 42468,
      "componentType": 5126,
      "count": 3539,
      "max": [
        1.0,
        1.0,
        1.0
      ],
      "min": [
        -1.0,
        -1.0,
        -1.0
      ],
      "type": "VEC3"
    },
    {
      "bufferView": 3,
      "componentType": 5126,
      "count": 3539,
      "max": [
        1.0,
        0.9999997019767761,
        0.9990176558494568,
        1.0
      ],
      "min": [
        -1.0,
        -0.9999555945396423,
        -1.0,
        -1.0
      ],
      "type": "VEC4"
    },
    {
      "bufferView": 1,
      "componentType": 5126,
      "count": 3539,
      "max": [
        0.9949222803115845,
        0.9787826538085938
      ],
      "min": [
        0.005861817859113216,
        0.00481260335072875
      ],
      "type": "VEC2"
    },
    {
      "bufferView": 1,
      "byteOffset": 28312,
      "componentType": 5126,
      "count": 3539,
      "max": [
        0.9949222803115845,
        0.9787826538085938
      ],
      "min": [
        0.005861817859113216,
        0.00481260335072875
      ],
      "type": "VEC2"
    },
    {
      "bufferView": 1,
      "byteOffset": 56624,
      "componentType": 5126,
      "count": 3539,
      "max": [
        0.9949222803115845,
        0.9787826538085938
      ],
      "min": [
        0.005861817859113216,
        0.00481260335072875
      ],
      "type": "VEC2"
    },
    {
      "bufferView": 0,
      "componentType": 5125,
      "count": 17796,
      "type": "SCALAR"
    }
  ],
  "asset": {
    "extras": {
      "author": "EmilJoes Games (https://sketchfab.com/emiljoes)",
      "license": "CC-BY-NC-4.0 (http://creativecommons.org/licenses/by-nc/4.0/)",
      "source": "https://sketchfab.com/3d-models/fnaf-table-5b89f12cdc6446b6894dd996850bb1dc",
      "title": "FNAF Table"
    },
    "generator": "Sketchfab-14.11.0",
    "version": "2.0"
  },
  "bufferViews": [
    {
      "buffer": 0,
      "byteLength": 71184,
      "name": "floatBufferViews",
      "target": 34963
    },
    {
      "buffer": 0,
      "byteLength": 84936,
      "byteOffset": 71184,
      "byteStride": 8,
      "name": "floatBufferViews",
      "target": 34962
    },
    {
      "buffer": 0,
      "byteLength": 84936,
      "byteOffset": 156120,
      "byteStride": 12,
      "name": "floatBufferViews",
      "target": 34962
    },
    {
      "buffer": 0,
      "byteLength": 56624,
      "byteOffset": 241056,
      "byteStride": 16,
      "name": "floatBufferViews",
      "target": 34962
    }
  ],
  "buffers": [
    {
      "byteLength": 297680,
      "uri": "scene.bin"
    }
  ],
  "images": [
    {
      "uri": "textures/FNAF_Table_Mat_baseColor.png"
    },
    {
      "uri": "textures/FNAF_Table_Mat_metallicRoughness.png"
    },
    {
      "uri": "textures/FNAF_Table_Mat_normal.png"
    }
  ],
  "materials": [
    {
      "doubleSided": true,
      "name": "FNAF_Table_Mat",
      "normalTexture": {
        "index": 2
      },
      "occlusionTexture": {
        "index": 1
      },
      "pbrMetallicRoughness": {
        "baseColorTexture": {
          "index": 0
        },
        "metallicRoughnessTexture": {
          "index": 1
        }
      }
    }
  ],
  "meshes": [
    {
      "name": "FNAF Table_FNAF Table Mat_0",
      "primitives": [
        {
          "attributes": {
            "NORMAL": 1,
            "POSITION": 0,
            "TANGENT": 2,
            "TEXCOORD_0": 3,
            "TEXCOORD_1": 4,
            "TEXCOORD_2": 5
          },
          "indices": 6,
          "material": 0,
          "mode": 4
        }
      ]
    }
  ],
  "nodes": [
    {
      "children": [
        1
      ],
      "matrix": [
        0.423712819814682,
        0.0,
        0.0,
        0.0,
        0.0,
        9.408314567742204e-17,
        -0.423712819814682,
        0.0,
        0.0,
        0.423712819814682,
        9.408314567742204e-17,
        0.0,
        0.0,
        0.0,
        0.0,
        1.0
      ],
      "name": "Sketchfab_model"
    },
    {
      "children": [
        2
      ],
      "matrix": [
        0.009999999776482582,
        0.0,
        0.0,
        0.0,
        0.0,
        0.0,
        0.009999999776482582,
        0.0,
        0.0,
        -0.009999999776482582,
        0.0,
        0.0,
        0.0,
        0.0,
        0.0,
        1.0
      ],
      "name": "FNaF Table.fbx"
    },
    {
      "children": [
        3
      ],
      "name": "RootNode"
    },
    {
      "children": [
        4
      ],
      "matrix": [
        100.0,
        0.0,
        0.0,
        0.0,
        0.0,
        -1.629206793918314e-05,
        -99.99999999999868,
        0.0,
        0.0,
        99.99999999999868,
        -1.629206793918314e-05,
        0.0,
        0.23299065232276917,
        -0.11574597656726837,
        3.791999340057373,
        1.0
      ],
      "name": "FNAF Table"
    },
    {
      "mesh": 0,
      "name": "FNAF Table_FNAF Table Mat_0"
    }
  ],
  "samplers": [
    {
      "magFilter": 9729,
      "minFilter": 9987,
      "wrapS": 10497,
      "wrapT": 10497
    }
  ],
  "scene": 0,
  "scenes": [
    {
      "name": "Sketchfab_Scene",
      "nodes": [
        0
      ]
    }
  ],
  "textures": [
    {
      "sampler": 0,
      "source": 0
    },
    {
      "sampler": 0,
      "source": 1
    },
    {
      "sampler": 0,
      "source": 2
    }
  ]
}
