{
  "accessors": [
    {
      "bufferView": 1,
      "componentType": 5126,
      "count": 8429,
      "max": [
        17.0,
        -0.0,
        -41.0
      ],
      "min": [
        -16.0,
        -22.0,
        -80.0
      ],
      "type": "VEC3"
    },
    {
      "bufferView": 1,
      "byteOffset": 101148,
      "componentType": 5126,
      "count": 8429,
      "max": [
        1.0,
        1.0,
        1.0
      ],
      "min": [
        -1.0,
        -1.0,
        -1.0
      ],
      "type": "VEC3"
    },
    {
      "bufferView": 0,
      "componentType": 5125,
      "count": 23817,
      "type": "SCALAR"
    },
    {
      "bufferView": 1,
      "byteOffset": 202296,
      "componentType": 5126,
      "count": 2485,
      "max": [
        238.0,
        -11.0,
        80.0
      ],
      "min": [
        -237.0,
        -12.0,
        -42.0
      ],
      "type": "VEC3"
    },
    {
      "bufferView": 1,
      "byteOffset": 232116,
      "componentType": 5126,
      "count": 2485,
      "max": [
        0.9999999403953552,
        1.0,
        1.0
      ],
      "min": [
        -0.9999999403953552,
        -1.0,
        -1.0
      ],
      "type": "VEC3"
    },
    {
      "bufferView": 0,
      "byteOffset": 95268,
      "componentType": 5125,
      "count": 10191,
      "type": "SCALAR"
    },
    {
      "bufferView": 1,
      "byteOffset": 261936,
      "componentType": 5126,
      "count": 49185,
      "max": [
        17.0,
        -1.0,
        -42.0
      ],
      "min": [
        -16.0,
        -21.0,
        -44.099998474121094
      ],
      "type": "VEC3"
    },
    {
      "bufferView": 1,
      "byteOffset": 852156,
      "componentType": 5126,
      "count": 49185,
      "max": [
        1.0,
        1.0,
        1.0
      ],
      "min": [
        -1.0,
        -1.0,
        -1.0
      ],
      "type": "VEC3"
    },
    {
      "bufferView": 0,
      "byteOffset": 136032,
      "componentType": 5125,
      "count": 144138,
      "type": "SCALAR"
    },
    {
      "bufferView": 1,
      "byteOffset": 1442376,
      "componentType": 5126,
      "count": 902,
      "max": [
        238.0,
        -0.0,
        80.0
      ],
      "min": [
        -237.0,
        -1.0,
        -42.0
      ],
      "type": "VEC3"
    },
    {
      "bufferView": 1,
      "byteOffset": 1453200,
      "componentType": 5126,
      "count": 902,
      "max": [
        0.9999999403953552,
        1.0,
        0.9999999403953552
      ],
      "min": [
        -0.9999999403953552,
        -1.0,
        -1.0
      ],
      "type": "VEC3"
    },
    {
      "bufferView": 0,
      "byteOffset": 712584,
      "componentType": 5125,
      "count": 3123,
      "type": "SCALAR"
    },
    {
      "bufferView": 1,
      "byteOffset": 1464024,
      "componentType": 5126,
      "count": 3375,
      "max": [
        238.0,
        -1.0,
        80.0
      ],
      "min": [
        -237.0,
        -11.0,
        -42.0
      ],
      "type": "VEC3"
    },
    {
      "bufferView": 1,
      "byteOffset": 1504524,
      "componentType": 5126,
      "count": 3375,
      "max": [
        1.0,
        0.0,
        1.0
      ],
      "min": [
        -1.0,
        0.0,
        -1.0
      ],
      "type": "VEC3"
    },
    {
      "bufferView": 0,
      "byteOffset": 725076,
      "componentType": 5125,
      "count": 5229,
      "type": "SCALAR"
    },
    {
      "bufferView": 1,
      "byteOffset": 1545024,
      "componentType": 5126,
      "count": 7960,
      "max": [
        234.0,
        -10.850000381469727,
        76.5
      ],
      "min": [
        -233.0,
        -12.100000381469727,
        -38.5
      ],
      "type": "VEC3"
    },
    {
      "bufferView": 1,
      "byteOffset": 1640544,
      "componentType": 5126,
      "count": 7960,
      "max": [
        1.0,
        1.0,
        1.0
      ],
      "min": [
        -1.0,
        -1.0,
        -1.0
      ],
      "type": "VEC3"
    },
    {
      "bufferView": 0,
      "byteOffset": 745992,
      "componentType": 5125,
      "count": 11940,
      "type": "SCALAR"
    },
    {
      "bufferView": 1,
      "byteOffset": 1736064,
      "componentType": 5126,
      "count": 17690,
      "max": [
        16.538000106811523,
        -1.0499999523162842,
        -42.0
      ],
      "min": [
        -15.538000106811523,
        -19.787200927734375,
        -43.94599914550781
      ],
      "type": "VEC3"
    },
    {
      "bufferView": 1,
      "byteOffset": 1948344,
      "componentType": 5126,
      "count": 17690,
      "max": [
        0.9999706745147705,
        1.0,
        1.0
      ],
      "min": [
        -0.9999999403953552,
        -1.0,
        -1.0
      ],
      "type": "VEC3"
    },
    {
      "bufferView": 0,
      "byteOffset": 793752,
      "componentType": 5125,
      "count": 52365,
      "type": "SCALAR"
    }
  ],
  "asset": {
    "extras": {
      "author": "LC_3D (https://sketchfab.com/lcopenhaver3608)",
      "license": "CC-BY-4.0 (http://creativecommons.org/licenses/by/4.0/)",
      "source": "https://sketchfab.com/3d-models/project-kv31-the-backrooms-8a0e067e92f941a0905863f12f0f7ee1",
      "title": "Project KV31 (The Backrooms)"
    },
    "generator": "Sketchfab-15.47.0",
    "version": "2.0"
  },
  "bufferViews": [
    {
      "buffer": 0,
      "byteLength": 1003212,
      "name": "floatBufferViews",
      "target": 34963
    },
    {
      "buffer": 0,
      "byteLength": 2160624,
      "byteOffset": 1003212,
      "byteStride": 12,
      "name": "floatBufferViews",
      "target": 34962
    }
  ],
  "buffers": [
    {
      "byteLength": 3163836,
      "uri": "scene.bin"
    }
  ],
  "extensionsUsed": [
    "KHR_materials_emissive_strength"
  ],
  "materials": [
    {
      "doubleSided": true,
      "name": "color_12568524",
      "pbrMetallicRoughness": {
        "baseColorFactor": [
          0.41591835841330743,
          0.40376861548655424,
          0.40376861548655424,
          1.0
        ],
        "metallicFactor": 0.0
      }
    },
    {
      "doubleSided": true,
      "name": "color_13552801",
      "pbrMetallicRoughness": {
        "baseColorFactor": [
          0.715855893155135,
          0.6960335549219455,
          0.05480983646923676,
          1.0
        ],
        "metallicFactor": 0.0
      }
    },
    {
      "doubleSided": true,
      "name": "color_14541540",
      "pbrMetallicRoughness": {
        "baseColorFactor": [
          0.8928293248917687,
          0.8838923783028267,
          0.8838923783028267,
          1.0
        ],
        "metallicFactor": 0.0,
        "roughnessFactor": 0.1526162790697675
      }
    },
    {
      "doubleSided": true,
      "name": "color_14860437",
      "pbrMetallicRoughness": {
        "baseColorFactor": [
          0.49203814104980514,
          0.3780414502083852,
          0.006104736822800112,
          1.0
        ],
        "metallicFactor": 0.0
      }
    },
    {
      "doubleSided": true,
      "name": "color_16777138",
      "pbrMetallicRoughness": {
        "baseColorFactor": [
          0.715855893155135,
          0.6267354863384299,
          0.02301733694791733,
          1.0
        ],
        "metallicFactor": 0.0
      }
    },
    {
      "doubleSided": true,
      "emissiveFactor": [
        1.0,
        1.0,
        1.0
      ],
      "extensions": {
        "KHR_materials_emissive_strength": {
          "emissiveStrength": 10.0
        }
      },
      "name": "color_16777215",
      "pbrMetallicRoughness": {
        "metallicFactor": 0.0
      }
    },
    {
      "doubleSided": true,
      "name": "color_2829873",
      "pbrMetallicRoughness": {
        "baseColorFactor": [
          0.0006788887657729511,
          0.0006819772168118272,
          0.0006849502726102096,
          1.0
        ],
        "metallicFactor": 0.0
      }
    }
  ],
  "meshes": [
    {
      "name": "Object_0",
      "primitives": [
        {
          "attributes": {
            "NORMAL": 1,
            "POSITION": 0
          },
          "indices": 2,
          "material": 0,
          "mode": 4
        }
      ]
    },
    {
      "name": "Object_1",
      "primitives": [
        {
          "attributes": {
            "NORMAL": 4,
            "POSITION": 3
          },
          "indices": 5,
          "material": 1,
          "mode": 4
        }
      ]
    },
    {
      "name": "Object_2",
      "primitives": [
        {
          "attributes": {
            "NORMAL": 7,
            "POSITION": 6
          },
          "indices": 8,
          "material": 2,
          "mode": 4
        }
      ]
    },
    {
      "name": "Object_3",
      "primitives": [
        {
          "attributes": {
            "NORMAL": 10,
            "POSITION": 9
          },
          "indices": 11,
          "material": 3,
          "mode": 4
        }
      ]
    },
    {
      "name": "Object_4",
      "primitives": [
        {
          "attributes": {
            "NORMAL": 13,
            "POSITION": 12
          },
          "indices": 14,
          "material": 4,
          "mode": 4
        }
      ]
    },
    {
      "name": "Object_5",
      "primitives": [
        {
          "attributes": {
            "NORMAL": 16,
            "POSITION": 15
          },
          "indices": 17,
          "material": 5,
          "mode": 4
        }
      ]
    },
    {
      "name": "Object_6",
      "primitives": [
        {
          "attributes": {
            "NORMAL": 19,
            "POSITION": 18
          },
          "indices": 20,
          "material": 6,
          "mode": 4
        }
      ]
    }
  ],
  "nodes": [
    {
      "children": [
        1
      ],
      "matrix": [
        0.3333333432674408,
        0.0,
        0.0,
        0.0,
        0.0,
        -0.3333333432674408,
        0.0,
        0.0,
        0.0,
        0.0,
        -0.3333333432674408,
        0.0,
        0.0,
        0.0,
        0.0,
        1.0
      ],
      "name": "Sketchfab_model"
    },
    {
      "children": [
        2,
        3,
        4,
        5,
        6,
        7,
        8
      ],
      "name": "tinker.obj.cleaner.materialmerger.gles"
    },
    {
      "mesh": 0,
      "name": "Object_2"
    },
    {
      "mesh": 1,
      "name": "Object_3"
    },
    {
      "mesh": 2,
      "name": "Object_4"
    },
    {
      "mesh": 3,
      "name": "Object_5"
    },
    {
      "mesh": 4,
      "name": "Object_6"
    },
    {
      "mesh": 5,
      "name": "Object_7"
    },
    {
      "mesh": 6,
      "name": "Object_8"
    }
  ],
  "scene": 0,
  "scenes": [
    {
      "name": "Sketchfab_Scene",
      "nodes": [
        0
      ]
    }
  ]
}
