{
  "accessors": [
    {
      "bufferView": 1,
      "componentType": 5126,
      "count": 1273,
      "max": [
        225.0,
        -0.0,
        116.0
      ],
      "min": [
        -127.0,
        -1.0,
        -127.0
      ],
      "type": "VEC3"
    },
    {
      "bufferView": 1,
      "byteOffset": 15276,
      "componentType": 5126,
      "count": 1273,
      "max": [
        1.0,
        1.0,
        1.0
      ],
      "min": [
        -0.9999999403953552,
        -1.0,
        -1.0
      ],
      "type": "VEC3"
    },
    {
      "bufferView": 0,
      "componentType": 5125,
      "count": 3879,
      "type": "SCALAR"
    },
    {
      "bufferView": 1,
      "byteOffset": 30552,
      "componentType": 5126,
      "count": 128,
      "max": [
        36.0,
        -0.0,
        -36.0
      ],
      "min": [
        31.0,
        -7.748000144958496,
        -41.0
      ],
      "type": "VEC3"
    },
    {
      "bufferView": 1,
      "byteOffset": 32088,
      "componentType": 5126,
      "count": 128,
      "max": [
        1.0,
        1.0,
        1.0
      ],
      "min": [
        -1.0,
        -1.0,
        0.0
      ],
      "type": "VEC3"
    },
    {
      "bufferView": 0,
      "byteOffset": 15516,
      "componentType": 5125,
      "count": 258,
      "type": "SCALAR"
    },
    {
      "bufferView": 1,
      "byteOffset": 33624,
      "componentType": 5126,
      "count": 188,
      "max": [
        37.0,
        -0.0,
        50.0
      ],
      "min": [
        -36.0,
        -30.0,
        -48.0
      ],
      "type": "VEC3"
    },
    {
      "bufferView": 1,
      "byteOffset": 35880,
      "componentType": 5126,
      "count": 188,
      "max": [
        1.0,
        1.0,
        1.0
      ],
      "min": [
        -1.0,
        -1.0,
        -1.0
      ],
      "type": "VEC3"
    },
    {
      "bufferView": 0,
      "byteOffset": 16548,
      "componentType": 5125,
      "count": 300,
      "type": "SCALAR"
    },
    {
      "bufferView": 1,
      "byteOffset": 38136,
      "componentType": 5126,
      "count": 23478,
      "max": [
        197.0,
        -0.0,
        99.0
      ],
      "min": [
        -98.875,
        -15.75,
        -99.5
      ],
      "type": "VEC3"
    },
    {
      "bufferView": 1,
      "byteOffset": 319872,
      "componentType": 5126,
      "count": 23478,
      "max": [
        1.0,
        1.0,
        1.0
      ],
      "min": [
        -1.0,
        -1.0,
        -1.0
      ],
      "type": "VEC3"
    },
    {
      "bufferView": 0,
      "byteOffset": 17748,
      "componentType": 5125,
      "count": 46056,
      "type": "SCALAR"
    },
    {
      "bufferView": 1,
      "byteOffset": 601608,
      "componentType": 5126,
      "count": 2503,
      "max": [
        125.0,
        -0.0,
        101.0
      ],
      "min": [
        -100.0,
        -27.0,
        -101.0
      ],
      "type": "VEC3"
    },
    {
      "bufferView": 1,
      "byteOffset": 631644,
      "componentType": 5126,
      "count": 2503,
      "max": [
        1.0,
        1.0,
        1.0
      ],
      "min": [
        -1.0,
        -5.875988790648989e-06,
        -1.0
      ],
      "type": "VEC3"
    },
    {
      "bufferView": 0,
      "byteOffset": 201972,
      "componentType": 5125,
      "count": 6888,
      "type": "SCALAR"
    },
    {
      "bufferView": 1,
      "byteOffset": 661680,
      "componentType": 5126,
      "count": 145,
      "max": [
        225.0,
        -27.0,
        116.0
      ],
      "min": [
        -127.0,
        -28.0,
        -127.0
      ],
      "type": "VEC3"
    },
    {
      "bufferView": 1,
      "byteOffset": 663420,
      "componentType": 5126,
      "count": 145,
      "max": [
        0.9999999403953552,
        1.0,
        1.0
      ],
      "min": [
        -1.0,
        -1.0,
        -1.0
      ],
      "type": "VEC3"
    },
    {
      "bufferView": 0,
      "byteOffset": 229524,
      "componentType": 5125,
      "count": 456,
      "type": "SCALAR"
    },
    {
      "bufferView": 1,
      "byteOffset": 665160,
      "componentType": 5126,
      "count": 4651,
      "max": [
        48.01900100708008,
        -18.0,
        17.031999588012695
      ],
      "min": [
        48.0,
        -25.0,
        -13.0
      ],
      "type": "VEC3"
    },
    {
      "bufferView": 1,
      "byteOffset": 720972,
      "componentType": 5126,
      "count": 4651,
      "max": [
        0.01012102235108614,
        1.0,
        1.0
      ],
      "min": [
        -1.0,
        -1.0,
        -1.0
      ],
      "type": "VEC3"
    },
    {
      "bufferView": 0,
      "byteOffset": 231348,
      "componentType": 5125,
      "count": 13701,
      "type": "SCALAR"
    },
    {
      "bufferView": 1,
      "byteOffset": 776784,
      "componentType": 5126,
      "count": 144,
      "max": [
        128.0,
        -0.0,
        42.0
      ],
      "min": [
        45.0,
        -1.0,
        -38.0
      ],
      "type": "VEC3"
    },
    {
      "bufferView": 1,
      "byteOffset": 778512,
      "componentType": 5126,
      "count": 144,
      "max": [
        0.0,
        1.0,
        0.0
      ],
      "min": [
        0.0,
        -1.0,
        0.0
      ],
      "type": "VEC3"
    },
    {
      "bufferView": 0,
      "byteOffset": 286152,
      "componentType": 5125,
      "count": 402,
      "type": "SCALAR"
    },
    {
      "bufferView": 1,
      "byteOffset": 780240,
      "componentType": 5126,
      "count": 72,
      "max": [
        125.0,
        -0.0,
        39.641998291015625
      ],
      "min": [
        47.858001708984375,
        -1.0,
        -36.0
      ],
      "type": "VEC3"
    },
    {
      "bufferView": 1,
      "byteOffset": 781104,
      "componentType": 5126,
      "count": 72,
      "max": [
        0.0,
        1.0,
        0.0
      ],
      "min": [
        0.0,
        -1.0,
        0.0
      ],
      "type": "VEC3"
    },
    {
      "bufferView": 0,
      "byteOffset": 287760,
      "componentType": 5125,
      "count": 192,
      "type": "SCALAR"
    }
  ],
  "asset": {
    "extras": {
      "author": "TheFungus (https://sketchfab.com/TheFoognus)",
      "license": "CC-BY-4.0 (http://creativecommons.org/licenses/by/4.0/)",
      "source": "https://sketchfab.com/3d-models/the-end-332a2bb22a3543e7be0bc43b24690d44",
      "title": "The End"
    },
    "generator": "Sketchfab-15.32.0",
    "version": "2.0"
  },
  "bufferViews": [
    {
      "buffer": 0,
      "byteLength": 288528,
      "name": "floatBufferViews",
      "target": 34963
    },
    {
      "buffer": 0,
      "byteLength": 781968,
      "byteOffset": 288528,
      "byteStride": 12,
      "name": "floatBufferViews",
      "target": 34962
    }
  ],
  "buffers": [
    {
      "byteLength": 1070496,
      "uri": "scene.bin"
    }
  ],
  "materials": [
    {
      "doubleSided": true,
      "name": "color_10988977",
      "pbrMetallicRoughness": {
        "baseColorFactor": [
          0.654902,
          0.678431,
          0.694118,
          1.0
        ],
        "metallicFactor": 0.0
      }
    },
    {
      "doubleSided": true,
      "name": "color_11634526",
      "pbrMetallicRoughness": {
        "baseColorFactor": [
          0.694118,
          0.529412,
          0.368627,
          1.0
        ],
        "metallicFactor": 0.0
      }
    },
    {
      "doubleSided": true,
      "name": "color_12491632",
      "pbrMetallicRoughness": {
        "baseColorFactor": [
          0.745098,
          0.607843,
          0.439216,
          1.0
        ],
        "metallicFactor": 0.0
      }
    },
    {
      "doubleSided": true,
      "name": "color_14663057",
      "pbrMetallicRoughness": {
        "baseColorFactor": [
          0.87451,
          0.741176,
          0.568627,
          1.0
        ],
        "metallicFactor": 0.0
      }
    },
    {
      "doubleSided": true,
      "name": "color_14860437",
      "pbrMetallicRoughness": {
        "baseColorFactor": [
          0.886275,
          0.752941,
          0.584314,
          1.0
        ],
        "metallicFactor": 0.0
      }
    },
    {
      "doubleSided": true,
      "name": "color_14977844",
      "pbrMetallicRoughness": {
        "baseColorFactor": [
          0.894118,
          0.545098,
          0.203922,
          1.0
        ],
        "metallicFactor": 0.0
      }
    },
    {
      "doubleSided": true,
      "name": "color_2829873",
      "pbrMetallicRoughness": {
        "baseColorFactor": [
          0.168627,
          0.180392,
          0.192157,
          1.0
        ],
        "metallicFactor": 0.0
      }
    },
    {
      "doubleSided": true,
      "name": "color_6383466",
      "pbrMetallicRoughness": {
        "baseColorFactor": [
          0.380392,
          0.403922,
          0.415686,
          1.0
        ],
        "metallicFactor": 0.0
      }
    },
    {
      "doubleSided": true,
      "name": "color_8273816",
      "pbrMetallicRoughness": {
        "baseColorFactor": [
          0.494118,
          0.247059,
          0.596078,
          1.0
        ],
        "metallicFactor": 0.0
      }
    }
  ],
  "meshes": [
    {
      "name": "Object_0",
      "primitives": [
        {
          "attributes": {
            "NORMAL": 1,
            "POSITION": 0
          },
          "indices": 2,
          "material": 0,
          "mode": 4
        }
      ]
    },
    {
      "name": "Object_1",
      "primitives": [
        {
          "attributes": {
            "NORMAL": 4,
            "POSITION": 3
          },
          "indices": 5,
          "material": 1,
          "mode": 4
        }
      ]
    },
    {
      "name": "Object_2",
      "primitives": [
        {
          "attributes": {
            "NORMAL": 7,
            "POSITION": 6
          },
          "indices": 8,
          "material": 2,
          "mode": 4
        }
      ]
    },
    {
      "name": "Object_3",
      "primitives": [
        {
          "attributes": {
            "NORMAL": 10,
            "POSITION": 9
          },
          "indices": 11,
          "material": 3,
          "mode": 4
        }
      ]
    },
    {
      "name": "Object_4",
      "primitives": [
        {
          "attributes": {
            "NORMAL": 13,
            "POSITION": 12
          },
          "indices": 14,
          "material": 4,
          "mode": 4
        }
      ]
    },
    {
      "name": "Object_5",
      "primitives": [
        {
          "attributes": {
            "NORMAL": 16,
            "POSITION": 15
          },
          "indices": 17,
          "material": 5,
          "mode": 4
        }
      ]
    },
    {
      "name": "Object_6",
      "primitives": [
        {
          "attributes": {
            "NORMAL": 19,
            "POSITION": 18
          },
          "indices": 20,
          "material": 6,
          "mode": 4
        }
      ]
    },
    {
      "name": "Object_7",
      "primitives": [
        {
          "attributes": {
            "NORMAL": 22,
            "POSITION": 21
          },
          "indices": 23,
          "material": 7,
          "mode": 4
        }
      ]
    },
    {
      "name": "Object_8",
      "primitives": [
        {
          "attributes": {
            "NORMAL": 25,
            "POSITION": 24
          },
          "indices": 26,
          "material": 8,
          "mode": 4
        }
      ]
    }
  ],
  "nodes": [
    {
      "children": [
        1
      ],
      "matrix": [
        1.0,
        0.0,
        0.0,
        0.0,
        0.0,
        -1.0,
        -4.440892098500626e-16,
        0.0,
        0.0,
        4.440892098500626e-16,
        -1.0,
        0.0,
        0.0,
        0.0,
        0.0,
        1.0
      ],
      "name": "Sketchfab_model"
    },
    {
      "children": [
        2,
        3,
        4,
        5,
        6,
        7,
        8,
        9,
        10
      ],
      "name": "tinker.obj.cleaner.materialmerger.gles"
    },
    {
      "mesh": 0,
      "name": "Object_2"
    },
    {
      "mesh": 1,
      "name": "Object_3"
    },
    {
      "mesh": 2,
      "name": "Object_4"
    },
    {
      "mesh": 3,
      "name": "Object_5"
    },
    {
      "mesh": 4,
      "name": "Object_6"
    },
    {
      "mesh": 5,
      "name": "Object_7"
    },
    {
      "mesh": 6,
      "name": "Object_8"
    },
    {
      "mesh": 7,
      "name": "Object_9"
    },
    {
      "mesh": 8,
      "name": "Object_10"
    }
  ],
  "scene": 0,
  "scenes": [
    {
      "name": "Sketchfab_Scene",
      "nodes": [
        0
      ]
    }
  ]
}
