{
  "accessors": [
    {
      "bufferView": 2,
      "componentType": 5126,
      "count": 6270,
      "max": [
        4.000000953674316,
        83.2773208618164,
        8.92187786102295
      ],
      "min": [
        -4.0,
        -83.27666473388672,
        -9.078125953674316
      ],
      "type": "VEC3"
    },
    {
      "bufferView": 2,
      "byteOffset": 75240,
      "componentType": 5126,
      "count": 6270,
      "max": [
        1.0,
        1.0,
        1.0
      ],
      "min": [
        -1.0,
        -1.0,
        -1.0
      ],
      "type": "VEC3"
    },
    {
      "bufferView": 3,
      "componentType": 5126,
      "count": 6270,
      "max": [
        1.0,
        1.6559026789764175e-06,
        0.0,
        1.0
      ],
      "min": [
        -4.76837158203125e-07,
        -1.89463412425539e-06,
        -1.0,
        -1.0
      ],
      "type": "VEC4"
    },
    {
      "bufferView": 1,
      "componentType": 5126,
      "count": 6270,
      "max": [
        5.018657207489014,
        42.13828659057617
      ],
      "min": [
        -3.981344699859619,
        -41.13870620727539
      ],
      "type": "VEC2"
    },
    {
      "bufferView": 1,
      "byteOffset": 50160,
      "componentType": 5126,
      "count": 6270,
      "max": [
        5.018657207489014,
        42.13828659057617
      ],
      "min": [
        -3.981344699859619,
        -41.13870620727539
      ],
      "type": "VEC2"
    },
    {
      "bufferView": 1,
      "byteOffset": 100320,
      "componentType": 5126,
      "count": 6270,
      "max": [
        5.018657207489014,
        42.13828659057617
      ],
      "min": [
        -3.981344699859619,
        -41.13870620727539
      ],
      "type": "VEC2"
    },
    {
      "bufferView": 1,
      "byteOffset": 150480,
      "componentType": 5126,
      "count": 6270,
      "max": [
        5.018657207489014,
        42.13828659057617
      ],
      "min": [
        -3.981344699859619,
        -41.13870620727539
      ],
      "type": "VEC2"
    },
    {
      "bufferView": 0,
      "componentType": 5125,
      "count": 9648,
      "type": "SCALAR"
    },
    {
      "bufferView": 2,
      "byteOffset": 150480,
      "componentType": 5126,
      "count": 46420,
      "max": [
        4.123332977294922,
        84.7104263305664,
        9.061201095581055
      ],
      "min": [
        -3.990549325942993,
        -84.12146759033203,
        -8.876096725463867
      ],
      "type": "VEC3"
    },
    {
      "bufferView": 2,
      "byteOffset": 707520,
      "componentType": 5126,
      "count": 46420,
      "max": [
        0.9999992847442627,
        0.9999983906745911,
        1.0
      ],
      "min": [
        -0.9999992847442627,
        -0.9999983906745911,
        -1.0
      ],
      "type": "VEC3"
    },
    {
      "bufferView": 3,
      "byteOffset": 100320,
      "componentType": 5126,
      "count": 46420,
      "max": [
        1.0,
        0.8196485042572021,
        0.7785636186599731,
        1.0
      ],
      "min": [
        -0.7948490977287292,
        -0.8245532512664795,
        -1.0,
        -1.0
      ],
      "type": "VEC4"
    },
    {
      "bufferView": 1,
      "byteOffset": 200640,
      "componentType": 5126,
      "count": 46420,
      "max": [
        2.288329601287842,
        17.434207916259766
      ],
      "min": [
        -1.259753942489624,
        -16.32033348083496
      ],
      "type": "VEC2"
    },
    {
      "bufferView": 1,
      "byteOffset": 572000,
      "componentType": 5126,
      "count": 46420,
      "max": [
        2.288329601287842,
        17.434207916259766
      ],
      "min": [
        -1.259753942489624,
        -16.32033348083496
      ],
      "type": "VEC2"
    },
    {
      "bufferView": 1,
      "byteOffset": 943360,
      "componentType": 5126,
      "count": 46420,
      "max": [
        2.288329601287842,
        17.434207916259766
      ],
      "min": [
        -1.259753942489624,
        -16.32033348083496
      ],
      "type": "VEC2"
    },
    {
      "bufferView": 1,
      "byteOffset": 1314720,
      "componentType": 5126,
      "count": 46420,
      "max": [
        2.288329601287842,
        17.434207916259766
      ],
      "min": [
        -1.259753942489624,
        -16.32033348083496
      ],
      "type": "VEC2"
    },
    {
      "bufferView": 0,
      "byteOffset": 38592,
      "componentType": 5125,
      "count": 152520,
      "type": "SCALAR"
    },
    {
      "bufferView": 2,
      "byteOffset": 1264560,
      "componentType": 5126,
      "count": 16,
      "max": [
        6.620513916015625,
        87.1734848022461,
        11.617253303527832
      ],
      "min": [
        -1.4020252227783203,
        -87.1734848022461,
        -6.3987627029418945
      ],
      "type": "VEC3"
    },
    {
      "bufferView": 2,
      "byteOffset": 1264752,
      "componentType": 5126,
      "count": 16,
      "max": [
        1.0,
        1.0,
        1.0
      ],
      "min": [
        0.0,
        -1.0,
        -0.0
      ],
      "type": "VEC3"
    },
    {
      "bufferView": 3,
      "byteOffset": 843040,
      "componentType": 5126,
      "count": 16,
      "max": [
        1.0,
        0.0,
        0.0,
        1.0
      ],
      "min": [
        0.0,
        0.0,
        -1.0,
        -1.0
      ],
      "type": "VEC4"
    },
    {
      "bufferView": 1,
      "byteOffset": 1686080,
      "componentType": 5126,
      "count": 16,
      "max": [
        2.3016018867492676,
        17.934696197509766
      ],
      "min": [
        -1.3016016483306885,
        -16.934696197509766
      ],
      "type": "VEC2"
    },
    {
      "bufferView": 1,
      "byteOffset": 1686208,
      "componentType": 5126,
      "count": 16,
      "max": [
        2.3016018867492676,
        17.934696197509766
      ],
      "min": [
        -1.3016016483306885,
        -16.934696197509766
      ],
      "type": "VEC2"
    },
    {
      "bufferView": 1,
      "byteOffset": 1686336,
      "componentType": 5126,
      "count": 16,
      "max": [
        2.3016018867492676,
        17.934696197509766
      ],
      "min": [
        -1.3016016483306885,
        -16.934696197509766
      ],
      "type": "VEC2"
    },
    {
      "bufferView": 1,
      "byteOffset": 1686464,
      "componentType": 5126,
      "count": 16,
      "max": [
        2.3016018867492676,
        17.934696197509766
      ],
      "min": [
        -1.3016016483306885,
        -16.934696197509766
      ],
      "type": "VEC2"
    },
    {
      "bufferView": 0,
      "byteOffset": 648672,
      "componentType": 5125,
      "count": 24,
      "type": "SCALAR"
    },
    {
      "bufferView": 2,
      "byteOffset": 1264944,
      "componentType": 5126,
      "count": 360,
      "max": [
        1.0,
        266.4998474121094,
        1.0858824253082275
      ],
      "min": [
        -1.0,
        -266.5000915527344,
        -0.9141175746917725
      ],
      "type": "VEC3"
    },
    {
      "bufferView": 2,
      "byteOffset": 1269264,
      "componentType": 5126,
      "count": 360,
      "max": [
        1.0,
        1.0,
        1.0
      ],
      "min": [
        -1.0,
        -1.0,
        -1.0
      ],
      "type": "VEC3"
    },
    {
      "bufferView": 1,
      "byteOffset": 1686592,
      "componentType": 5126,
      "count": 360,
      "max": [
        0.875,
        1.0
      ],
      "min": [
        0.125,
        0.0
      ],
      "type": "VEC2"
    },
    {
      "bufferView": 0,
      "byteOffset": 648768,
      "componentType": 5125,
      "count": 600,
      "type": "SCALAR"
    }
  ],
  "asset": {
    "extras": {
      "author": "Denkon (https://sketchfab.com/nykondenys)",
      "license": "CC-BY-4.0 (http://creativecommons.org/licenses/by/4.0/)",
      "source": "https://sketchfab.com/3d-models/stairs-to-the-outside-53223b6695634bffb3f90e62ac8a4537",
      "title": "Stairs to the outside"
    },
    "generator": "Sketchfab-13.47.0",
    "version": "2.0"
  },
  "bufferViews": [
    {
      "buffer": 0,
      "byteLength": 651168,
      "name": "floatBufferViews",
      "target": 34963
    },
    {
      "buffer": 0,
      "byteLength": 1689472,
      "byteOffset": 651168,
      "byteStride": 8,
      "name": "floatBufferViews",
      "target": 34962
    },
    {
      "buffer": 0,
      "byteLength": 1273584,
      "byteOffset": 2340640,
      "byteStride": 12,
      "name": "floatBufferViews",
      "target": 34962
    },
    {
      "buffer": 0,
      "byteLength": 843296,
      "byteOffset": 3614224,
      "byteStride": 16,
      "name": "floatBufferViews",
      "target": 34962
    }
  ],
  "buffers": [
    {
      "byteLength": 4457520,
      "uri": "scene.bin"
    }
  ],
  "images": [
    {
      "uri": "textures/Stairs_baseColor.jpeg"
    },
    {
      "uri": "textures/Stairs_metallicRoughness.png"
    },
    {
      "uri": "textures/Stairs_normal.jpeg"
    },
    {
      "uri": "textures/Railings_baseColor.jpeg"
    },
    {
      "uri": "textures/Railings_metallicRoughness.png"
    },
    {
      "uri": "textures/Railings_normal.jpeg"
    },
    {
      "uri": "textures/Wall_baseColor.jpeg"
    },
    {
      "uri": "textures/Wall_metallicRoughness.png"
    },
    {
      "uri": "textures/Wall_normal.jpeg"
    }
  ],
  "materials": [
    {
      "doubleSided": true,
      "name": "Stairs",
      "normalTexture": {
        "index": 2
      },
      "pbrMetallicRoughness": {
        "baseColorTexture": {
          "index": 0
        },
        "metallicFactor": 0.0,
        "metallicRoughnessTexture": {
          "index": 1
        }
      }
    },
    {
      "doubleSided": true,
      "name": "Railings",
      "normalTexture": {
        "index": 5
      },
      "pbrMetallicRoughness": {
        "baseColorTexture": {
          "index": 3
        },
        "metallicRoughnessTexture": {
          "index": 4
        }
      }
    },
    {
      "name": "Wall",
      "normalTexture": {
        "index": 8
      },
      "pbrMetallicRoughness": {
        "baseColorTexture": {
          "index": 6
        },
        "metallicFactor": 0.0,
        "metallicRoughnessTexture": {
          "index": 7
        }
      }
    },
    {
      "doubleSided": true,
      "emissiveFactor": [
        1.0,
        1.0,
        1.0
      ],
      "name": "Light",
      "pbrMetallicRoughness": {
        "baseColorFactor": [
          0.0,
          0.0,
          0.0,
          1.0
        ]
      }
    }
  ],
  "meshes": [
    {
      "name": "Object_0",
      "primitives": [
        {
          "attributes": {
            "NORMAL": 1,
            "POSITION": 0,
            "TANGENT": 2,
            "TEXCOORD_0": 3,
            "TEXCOORD_1": 4,
            "TEXCOORD_2": 5,
            "TEXCOORD_3": 6
          },
          "indices": 7,
          "material": 0,
          "mode": 4
        }
      ]
    },
    {
      "name": "Object_1",
      "primitives": [
        {
          "attributes": {
            "NORMAL": 9,
            "POSITION": 8,
            "TANGENT": 10,
            "TEXCOORD_0": 11,
            "TEXCOORD_1": 12,
            "TEXCOORD_2": 13,
            "TEXCOORD_3": 14
          },
          "indices": 15,
          "material": 1,
          "mode": 4
        }
      ]
    },
    {
      "name": "Object_2",
      "primitives": [
        {
          "attributes": {
            "NORMAL": 17,
            "POSITION": 16,
            "TANGENT": 18,
            "TEXCOORD_0": 19,
            "TEXCOORD_1": 20,
            "TEXCOORD_2": 21,
            "TEXCOORD_3": 22
          },
          "indices": 23,
          "material": 2,
          "mode": 4
        }
      ]
    },
    {
      "name": "Object_3",
      "primitives": [
        {
          "attributes": {
            "NORMAL": 25,
            "POSITION": 24,
            "TEXCOORD_0": 26
          },
          "indices": 27,
          "material": 3,
          "mode": 4
        }
      ]
    }
  ],
  "nodes": [
    {
      "children": [
        1
      ],
      "matrix": [
        1.0,
        0.0,
        0.0,
        0.0,
        0.0,
        3.828568672208042e-16,
        -1.0,
        0.0,
        0.0,
        1.0,
        3.828568672208042e-16,
        0.0,
        0.0,
        0.0,
        0.0,
        1.0
      ],
      "name": "Sketchfab_model"
    },
    {
      "children": [
        2
      ],
      "name": "root"
    },
    {
      "children": [
        3,
        5,
        7,
        9
      ],
      "matrix": [
        1.0,
        0.0,
        0.0,
        0.0,
        0.0,
        2.220446049250313e-16,
        1.0,
        0.0,
        0.0,
        -1.0,
        2.220446049250313e-16,
        0.0,
        0.0,
        0.0,
        0.0,
        1.0
      ],
      "name": "GLTF_SceneRootNode"
    },
    {
      "children": [
        4
      ],
      "matrix": [
        1.0,
        0.0,
        0.0,
        0.0,
        0.0,
        1.0,
        0.0,
        0.0,
        0.0,
        0.0,
        1.0,
        0.0,
        2.000000238418579,
        82.52666473388672,
        -5.421875,
        1.0
      ],
      "name": "Stairs_0"
    },
    {
      "mesh": 0,
      "name": "Object_4"
    },
    {
      "children": [
        6
      ],
      "matrix": [
        -0.9999999999999467,
        0.0,
        3.258413698858844e-07,
        0.0,
        0.0,
        1.0,
        0.0,
        0.0,
        -3.258413698858844e-07,
        0.0,
        -0.9999999999999467,
        0.0,
        2.0479929447174072,
        84.85858917236328,
        -5.289030075073242,
        1.0
      ],
      "name": "Railings_1"
    },
    {
      "mesh": 1,
      "name": "Object_6"
    },
    {
      "children": [
        8
      ],
      "matrix": [
        1.0,
        0.0,
        0.0,
        0.0,
        0.0,
        1.0,
        0.0,
        0.0,
        0.0,
        0.0,
        1.0,
        0.0,
        -0.6189253330230713,
        86.43293762207031,
        -8.098752975463867,
        1.0
      ],
      "name": "Wall_2"
    },
    {
      "mesh": 2,
      "name": "Object_8"
    },
    {
      "children": [
        10
      ],
      "matrix": [
        1.8955423831939697,
        0.0,
        0.0,
        0.0,
        0.0,
        0.28308001160621643,
        0.0,
        0.0,
        0.0,
        0.0,
        0.20070087909698486,
        0.0,
        2.0,
        92.13322448730469,
        -14.338501930236816,
        1.0
      ],
      "name": "Light_3"
    },
    {
      "mesh": 3,
      "name": "Object_10"
    }
  ],
  "samplers": [
    {
      "magFilter": 9729,
      "minFilter": 9987,
      "wrapS": 10497,
      "wrapT": 10497
    }
  ],
  "scene": 0,
  "scenes": [
    {
      "name": "Sketchfab_Scene",
      "nodes": [
        0
      ]
    }
  ],
  "textures": [
    {
      "sampler": 0,
      "source": 0
    },
    {
      "sampler": 0,
      "source": 1
    },
    {
      "sampler": 0,
      "source": 2
    },
    {
      "sampler": 0,
      "source": 3
    },
    {
      "sampler": 0,
      "source": 4
    },
    {
      "sampler": 0,
      "source": 5
    },
    {
      "sampler": 0,
      "source": 6
    },
    {
      "sampler": 0,
      "source": 7
    },
    {
      "sampler": 0,
      "source": 8
    }
  ]
}
